# Blender v2.79 (sub 0) OBJ File: ''
# www.blender.org
mtllib cow.mtl
o cow
v 0.309039 0.000000 -0.206026
v 0.309039 0.618078 -0.206026
v 0.103013 0.618078 -0.206026
v 0.103013 0.000000 -0.206026
v 0.309039 0.000000 -0.412052
v 0.309039 0.618078 -0.412052
v 0.103013 0.000000 -0.412052
v 0.103013 0.618078 -0.412052
v 0.309039 -0.000000 0.463558
v 0.309039 0.618077 0.463558
v 0.103013 0.618078 0.463558
v 0.103013 -0.000000 0.463558
v 0.309039 -0.000000 0.257532
v 0.309039 0.618078 0.257532
v 0.103013 -0.000000 0.257532
v 0.103013 0.618078 0.257532
v -0.103013 0.000000 -0.206026
v -0.103013 0.618078 -0.206026
v -0.309039 0.618078 -0.206026
v -0.309039 0.000000 -0.206026
v -0.103013 0.000000 -0.412052
v -0.103013 0.618078 -0.412052
v -0.309039 0.000000 -0.412052
v -0.309039 0.618078 -0.412052
v -0.103013 -0.000000 0.463558
v -0.103013 0.618078 0.463558
v -0.309039 0.618077 0.463558
v -0.309039 -0.000000 0.463558
v -0.103013 -0.000000 0.257532
v -0.103013 0.618078 0.257532
v -0.309039 -0.000000 0.257532
v -0.309039 0.618078 0.257532
v 0.103013 0.617390 0.463558
v 0.309039 0.617390 0.463558
v 0.309039 1.132455 0.463558
v 0.103013 1.132455 0.463558
v -0.103013 0.617390 -0.463558
v -0.309039 0.617390 -0.463558
v -0.309039 1.132455 -0.463558
v -0.103013 1.132455 -0.463558
v -0.309039 0.617390 -0.257532
v -0.309039 0.617390 0.463558
v -0.309039 1.132455 0.463558
v -0.309039 1.132455 -0.257532
v 0.309039 1.132455 -0.257532
v 0.103013 1.132455 -0.257532
v -0.103013 0.617390 -0.257532
v 0.309039 0.617390 -0.257532
v -0.103013 0.617390 0.463558
v 0.309039 1.132455 -0.463558
v 0.309039 0.617390 -0.463558
v 0.103013 1.132455 -0.463558
v -0.103013 1.132455 0.463558
v 0.103013 0.617390 -0.463558
v -0.103013 1.132455 -0.257532
v -0.103013 0.565884 -0.463558
v 0.103013 0.565884 -0.463558
v 0.103013 0.565884 -0.257532
v -0.103013 0.565884 -0.257532
v 0.103013 0.617390 -0.257532
v 0.206026 0.823416 0.772597
v 0.206026 1.235468 0.772597
v -0.206026 1.235468 0.772597
v -0.206026 0.823416 0.772597
v 0.206026 0.823416 0.463558
v 0.206026 1.235468 0.463558
v -0.206026 0.823416 0.463558
v -0.206026 1.235468 0.463558
v 0.257532 1.132455 0.669584
v 0.257532 1.286974 0.669584
v 0.206026 1.286974 0.669584
v 0.206026 1.132455 0.669584
v 0.257532 1.132455 0.618078
v 0.257532 1.286974 0.618078
v 0.206026 1.132455 0.618078
v 0.206026 1.286974 0.618078
v -0.206026 1.132455 0.669584
v -0.206026 1.286974 0.669584
v -0.257532 1.286974 0.669584
v -0.257532 1.132455 0.669584
v -0.206026 1.132455 0.618078
v -0.206026 1.286974 0.618078
v -0.257532 1.132455 0.618078
v -0.257532 1.286974 0.618078
vt 0.125216 0.187388
vt 0.125216 0.374576
vt 0.062560 0.374576
vt 0.062560 0.187388
vt 0.187716 0.187388
vt 0.187560 0.374263
vt 0.249904 0.187388
vt 0.250060 0.374576
vt 0.000060 0.374576
vt 0.000060 0.187388
vt 0.125216 0.499576
vt 0.062716 0.499576
vt 0.187560 0.374263
vt 0.187716 0.499576
vt 0.125216 0.499576
vt 0.125216 0.374576
vt 0.125216 0.187388
vt 0.125216 0.374576
vt 0.062560 0.374576
vt 0.062560 0.187388
vt 0.187716 0.187388
vt 0.187560 0.374263
vt 0.249904 0.187388
vt 0.250060 0.374576
vt 0.000060 0.374576
vt 0.000060 0.187388
vt 0.125216 0.499576
vt 0.062716 0.499576
vt 0.187560 0.374263
vt 0.187716 0.499576
vt 0.125216 0.499576
vt 0.125216 0.374576
vt 0.125216 0.187388
vt 0.125216 0.374576
vt 0.062560 0.374576
vt 0.062560 0.187388
vt 0.187716 0.187388
vt 0.187560 0.374263
vt 0.249904 0.187388
vt 0.250060 0.374576
vt 0.000060 0.374576
vt 0.000060 0.187388
vt 0.125216 0.499576
vt 0.062716 0.499576
vt 0.187560 0.374263
vt 0.187716 0.499576
vt 0.125216 0.499576
vt 0.125216 0.374576
vt 0.125216 0.187388
vt 0.125216 0.374576
vt 0.062560 0.374576
vt 0.062560 0.187388
vt 0.187716 0.187388
vt 0.187560 0.374263
vt 0.249904 0.187388
vt 0.250060 0.374576
vt 0.000060 0.374576
vt 0.000060 0.187388
vt 0.125216 0.499576
vt 0.062716 0.499576
vt 0.187560 0.374263
vt 0.187716 0.499576
vt 0.125216 0.499576
vt 0.125216 0.374576
vt 0.562641 0.562386
vt 0.625000 0.562386
vt 0.625000 0.875000
vt 0.562641 0.875000
vt 0.750191 0.562786
vt 0.812602 0.562786
vt 0.812341 0.874377
vt 0.749931 0.874377
vt 0.437309 0.125036
vt 0.437564 0.562212
vt 0.281836 0.562537
vt 0.281621 0.124245
vt 0.843750 0.562500
vt 0.781250 0.562500
vt 0.781250 0.125000
vt 0.843750 0.125000
vt 0.500000 0.000000
vt 0.500000 0.187500
vt 0.437500 0.187500
vt 0.437500 0.000000
vt 0.781140 0.124667
vt 0.781052 0.561391
vt 0.625508 0.561950
vt 0.625399 0.124975
vt 0.281500 -0.000622
vt 0.437117 0.000071
vt 0.500000 0.562500
vt 0.437500 0.562500
vt 0.781111 -0.000251
vt 0.625457 -0.000546
vt 0.843750 0.000001
vt 0.781250 0.000001
vt 0.500282 0.875000
vt 0.437923 0.875000
vt 0.437923 0.562386
vt 0.500282 0.562386
vt 0.687520 0.874377
vt 0.687780 0.562786
vt 0.906250 0.125001
vt 0.968594 0.125001
vt 0.968594 0.562500
vt 0.906250 0.562500
vt 0.890625 0.812500
vt 0.890625 0.937500
vt 0.828125 0.937500
vt 0.828125 0.812500
vt 0.562500 0.187500
vt 0.562500 0.562500
vt 0.906250 0.000001
vt 0.968594 0.000001
vt 0.625109 0.874377
vt 0.625370 0.562786
vt 0.625000 0.000000
vt 0.625000 0.187500
vt 0.562500 0.187500
vt 0.562500 0.000000
vt 0.625000 0.187500
vt 0.625000 0.562500
vt 0.921875 0.968750
vt 0.921875 1.000000
vt 0.890625 1.000000
vt 0.890625 0.968750
vt 0.890625 0.968750
vt 0.890625 1.000000
vt 0.859375 1.000000
vt 0.859375 0.968750
vt 0.859375 0.968750
vt 0.859375 1.000000
vt 0.828125 1.000000
vt 0.828125 0.968750
vt 0.953125 0.968750
vt 0.953125 1.000000
vt 0.921875 1.000000
vt 0.921875 0.968750
vt 0.218737 0.562297
vt 0.218737 0.812395
vt 0.093981 0.812395
vt 0.093981 0.562297
vt 0.312397 0.563332
vt 0.312397 0.812395
vt 0.218786 0.812395
vt 0.218786 0.563332
vt 0.437310 0.563097
vt 0.437310 0.811380
vt 0.312731 0.812004
vt 0.312731 0.563097
vt 0.093791 0.562318
vt 0.093947 0.812083
vt 0.000225 0.812083
vt 0.000381 0.562318
vt 0.218824 0.812658
vt 0.218824 0.999670
vt 0.093948 0.999670
vt 0.093948 0.812658
vt 0.343810 0.812413
vt 0.343810 0.999645
vt 0.218811 0.999645
vt 0.218811 0.812413
vt 0.375144 0.875304
vt 0.375144 0.968194
vt 0.359576 0.968194
vt 0.359576 0.875304
vt 0.390712 0.875304
vt 0.390712 0.968194
vt 0.406261 0.875304
vt 0.406261 0.967962
vt 0.344008 0.968194
vt 0.344008 0.875304
vt 0.374788 0.968756
vt 0.374788 0.999755
vt 0.359752 0.999755
vt 0.359752 0.968756
vt 0.390469 0.968853
vt 0.390469 0.999677
vt 0.375284 0.999677
vt 0.375284 0.968853
vt 0.375144 0.875304
vt 0.375144 0.968194
vt 0.359576 0.968194
vt 0.359576 0.875304
vt 0.390712 0.875304
vt 0.390712 0.968194
vt 0.406261 0.875304
vt 0.406261 0.967962
vt 0.344008 0.968194
vt 0.344008 0.875304
vt 0.374788 0.968756
vt 0.374788 0.999755
vt 0.359752 0.999755
vt 0.359752 0.968756
vt 0.390469 0.968853
vt 0.390469 0.999677
vt 0.375284 0.999677
vt 0.375284 0.968853
vn 0.0000 -0.0000 1.0000
vn 1.0000 0.0000 0.0000
vn 0.0000 0.0000 -1.0000
vn -1.0000 -0.0000 0.0000
vn 0.0000 1.0000 0.0000
vn 0.0000 -1.0000 -0.0000
usemtl mob_cow
s off
f 1/1/1 2/2/1 3/3/1 4/4/1
f 5/5/2 6/6/2 2/2/2 1/1/2
f 7/7/3 8/8/3 6/6/3 5/5/3
f 4/4/4 3/3/4 8/9/4 7/10/4
f 2/2/5 6/11/5 8/12/5 3/3/5
f 5/13/6 1/14/6 4/15/6 7/16/6
f 9/17/1 10/18/1 11/19/1 12/20/1
f 13/21/2 14/22/2 10/18/2 9/17/2
f 15/23/3 16/24/3 14/22/3 13/21/3
f 12/20/4 11/19/4 16/25/4 15/26/4
f 10/18/5 14/27/5 16/28/5 11/19/5
f 13/29/6 9/30/6 12/31/6 15/32/6
f 17/33/1 18/34/1 19/35/1 20/36/1
f 21/37/2 22/38/2 18/34/2 17/33/2
f 23/39/3 24/40/3 22/38/3 21/37/3
f 20/36/4 19/35/4 24/41/4 23/42/4
f 18/34/5 22/43/5 24/44/5 19/35/5
f 21/45/6 17/46/6 20/47/6 23/48/6
f 25/49/1 26/50/1 27/51/1 28/52/1
f 29/53/2 30/54/2 26/50/2 25/49/2
f 31/55/3 32/56/3 30/54/3 29/53/3
f 28/52/4 27/51/4 32/57/4 31/58/4
f 26/50/5 30/59/5 32/60/5 27/51/5
f 29/61/6 25/62/6 28/63/6 31/64/6
f 33/65/1 34/66/1 35/67/1 36/68/1
f 37/69/3 38/70/3 39/71/3 40/72/3
f 41/73/4 42/74/4 43/75/4 44/76/4
f 36/77/5 35/78/5 45/79/5 46/80/5
f 37/81/6 47/82/6 41/83/6 38/84/6
f 45/85/2 35/86/2 34/87/2 48/88/2
f 44/76/4 39/89/4 38/90/4 41/73/4
f 47/82/6 49/91/6 42/92/6 41/83/6
f 50/93/2 45/85/2 48/88/2 51/94/2
f 52/95/5 46/80/5 45/79/5 50/96/5
f 53/97/1 43/98/1 42/99/1 49/100/1
f 40/72/3 52/101/3 54/102/3 37/69/3
f 55/103/5 44/104/5 43/105/5 53/106/5
f 56/107/6 57/108/6 58/109/6 59/110/6
f 47/82/6 60/111/6 33/112/6 49/91/6
f 40/113/5 39/114/5 44/104/5 55/103/5
f 36/68/1 53/97/1 49/100/1 33/65/1
f 46/80/5 55/103/5 53/106/5 36/77/5
f 52/95/5 40/113/5 55/103/5 46/80/5
f 52/101/3 50/115/3 51/116/3 54/102/3
f 54/117/6 51/118/6 48/119/6 60/120/6
f 60/111/6 48/121/6 34/122/6 33/112/6
f 37/123/4 56/124/4 59/125/4 47/126/4
f 54/127/3 57/128/3 56/129/3 37/130/3
f 60/131/2 58/132/2 57/133/2 54/134/2
f 47/135/1 59/136/1 58/137/1 60/138/1
f 61/139/1 62/140/1 63/141/1 64/142/1
f 65/143/2 66/144/2 62/145/2 61/146/2
f 67/147/3 68/148/3 66/149/3 65/150/3
f 64/151/4 63/152/4 68/153/4 67/154/4
f 62/155/5 66/156/5 68/157/5 63/158/5
f 65/159/6 61/160/6 64/161/6 67/162/6
f 69/163/1 70/164/1 71/165/1 72/166/1
f 73/167/2 74/168/2 70/164/2 69/163/2
f 75/169/3 76/170/3 74/168/3 73/167/3
f 72/166/4 71/165/4 76/171/4 75/172/4
f 70/173/5 74/174/5 76/175/5 71/176/5
f 73/177/6 69/178/6 72/179/6 75/180/6
f 77/181/1 78/182/1 79/183/1 80/184/1
f 81/185/2 82/186/2 78/182/2 77/181/2
f 83/187/3 84/188/3 82/186/3 81/185/3
f 80/184/4 79/183/4 84/189/4 83/190/4
f 78/191/5 82/192/5 84/193/5 79/194/5
f 81/195/6 77/196/6 80/197/6 83/198/6
