# Blender v2.79 (sub 0) OBJ File: 'pig.blend'
# www.blender.org
mtllib pig_000001.mtl
o Head_Cube.010
v 0.400000 2.881594 2.981339
v 0.400000 2.881594 3.001338
v 0.400000 3.081593 3.001338
v 0.400000 3.081593 2.981339
v 0.800000 2.881594 2.981339
v 0.800000 3.081593 2.981339
v 0.800000 3.081593 3.001338
v 0.800000 2.881594 3.001338
v -0.800000 3.081593 3.001338
v -0.800000 3.081593 2.981339
v -0.800000 2.881594 2.981339
v -0.800000 2.881594 3.001338
v -0.400000 3.081593 2.981339
v -0.400000 2.881594 2.981339
v -0.400000 3.081593 3.001338
v -0.400000 2.881594 3.001338
v -0.899896 3.081593 2.781286
v -0.899896 3.081594 2.581286
v -0.899896 2.681595 2.581286
v -0.899896 2.681594 2.781286
v -0.799896 3.081594 2.581286
v -0.799896 2.681595 2.581286
v -0.799896 3.081593 2.781286
v -0.799896 2.681594 2.781286
v -0.899896 3.281594 2.581286
v -0.899896 3.281595 2.181287
v -0.899896 2.481595 2.181287
v -0.899896 2.481595 2.581286
v -0.799896 3.281595 2.181287
v -0.799896 2.481595 2.181287
v -0.799896 3.281594 2.581286
v -0.799896 2.481595 2.581286
v 0.800104 3.081593 2.781286
v 0.800104 3.081594 2.581286
v 0.800104 2.681595 2.581286
v 0.800104 2.681594 2.781286
v 0.900104 3.081594 2.581286
v 0.900104 2.681595 2.581286
v 0.900104 3.081593 2.781286
v 0.900104 2.681594 2.781286
v 0.800104 3.281594 2.581286
v 0.800104 3.281595 2.181287
v 0.800104 2.481595 2.181287
v 0.800104 2.481595 2.581286
v 0.900104 3.281595 2.181287
v 0.900104 2.481595 2.181287
v 0.900104 3.281594 2.581286
v 0.900104 2.481595 2.581286
v -0.400000 2.881594 3.181287
v -0.400000 2.881594 2.981287
v -0.400000 2.281593 2.981287
v -0.400000 2.281593 3.181287
v 0.400000 2.881594 2.981287
v 0.400000 2.281593 2.981287
v 0.400000 2.881594 3.181287
v 0.400000 2.281593 3.181287
v -0.800000 3.681594 2.981287
v -0.800000 3.681595 1.381287
v -0.800000 2.081594 1.381286
v -0.800000 2.081593 2.981286
v 0.800000 3.681595 1.381287
v 0.800000 2.081594 1.381286
v 0.800000 3.681594 2.981287
v 0.800000 2.081593 2.981286
vt 0.234375 0.625000
vt 0.218750 0.625000
vt 0.218750 0.656250
vt 0.234375 0.656250
vt 0.250000 0.656250
vt 0.218750 0.656250
vt 0.218750 0.625000
vt 0.250000 0.625000
vt 0.250000 0.656250
vt 0.234375 0.656250
vt 0.234375 0.625000
vt 0.250000 0.625000
vt 0.250000 0.625000
vt 0.250000 0.656250
vt 0.125000 0.656250
vt 0.140625 0.656250
vt 0.140625 0.625000
vt 0.125000 0.625000
vt 0.125000 0.625000
vt 0.156250 0.625000
vt 0.156250 0.656250
vt 0.125000 0.656250
vt 0.156250 0.656250
vt 0.140625 0.656250
vt 0.140625 0.625000
vt 0.156250 0.625000
vt 0.156250 0.656250
vt 0.156250 0.625000
vt 0.125000 0.656250
vt 0.125000 0.625000
vt 0.156250 0.656250
vt 0.156250 0.625000
vt 0.125000 0.656250
vt 0.125000 0.625000
vt 0.109375 0.656250
vt 0.093750 0.656250
vt 0.093750 0.593750
vt 0.109375 0.593750
vt 0.093750 0.593750
vt 0.109375 0.593750
vt 0.109375 0.656250
vt 0.109375 0.656250
vt 0.093750 0.656250
vt 0.093750 0.593750
vt 0.109375 0.656250
vt 0.093750 0.656250
vt 0.093750 0.593750
vt 0.109375 0.593750
vt 0.093750 0.625000
vt 0.109375 0.625000
vt 0.109375 0.625000
vt 0.093750 0.625000
vt 0.093750 0.687500
vt 0.062500 0.687500
vt 0.062500 0.562500
vt 0.093750 0.562500
vt 0.062500 0.562500
vt 0.078125 0.562500
vt 0.078125 0.687500
vt 0.093750 0.687500
vt 0.062500 0.687500
vt 0.062500 0.562500
vt 0.093750 0.562500
vt 0.078125 0.687500
vt 0.062500 0.687500
vt 0.062500 0.562500
vt 0.078125 0.562500
vt 0.062500 0.687500
vt 0.062500 0.656250
vt 0.093750 0.656250
vt 0.093750 0.687500
vt 0.093750 0.656250
vt 0.062500 0.656250
vt 0.281250 0.656250
vt 0.265625 0.656250
vt 0.265625 0.593750
vt 0.281250 0.593750
vt 0.265625 0.593750
vt 0.281250 0.593750
vt 0.281250 0.656250
vt 0.281250 0.656250
vt 0.265625 0.656250
vt 0.265625 0.593750
vt 0.281250 0.656250
vt 0.265625 0.656250
vt 0.265625 0.593750
vt 0.281250 0.593750
vt 0.265625 0.625000
vt 0.281250 0.625000
vt 0.281250 0.625000
vt 0.265625 0.625000
vt 0.281250 0.562500
vt 0.312500 0.562500
vt 0.312500 0.687500
vt 0.281250 0.687500
vt 0.296875 0.562500
vt 0.312500 0.562500
vt 0.312500 0.687500
vt 0.296875 0.687500
vt 0.312500 0.687500
vt 0.281250 0.687500
vt 0.281250 0.562500
vt 0.312500 0.562500
vt 0.312500 0.687500
vt 0.296875 0.687500
vt 0.296875 0.562500
vt 0.312500 0.562500
vt 0.296875 0.593750
vt 0.296875 0.562500
vt 0.312500 0.593750
vt 0.312500 0.656250
vt 0.281250 0.687500
vt 0.281250 0.656250
vt 0.265625 0.468750
vt 0.250000 0.468750
vt 0.250000 0.375000
vt 0.265625 0.375000
vt 0.156250 0.531250
vt 0.218750 0.531250
vt 0.218750 0.625000
vt 0.156250 0.625000
vt 0.343750 0.468750
vt 0.328125 0.468750
vt 0.328125 0.375000
vt 0.343750 0.375000
vt 0.328125 0.500000
vt 0.328125 0.468750
vt 0.390625 0.468750
vt 0.390625 0.500000
vt 0.328125 0.500000
vt 0.265625 0.500000
vt 0.125000 0.500000
vt 0.000000 0.500000
vt -0.000000 0.750000
vt 0.125000 0.750000
vt 0.375000 0.500000
vt 0.500000 0.500000
vt 0.500000 0.750000
vt 0.375000 0.750000
vt 0.375000 0.750000
vt 0.250000 0.750000
vt 0.250000 0.500000
vt 0.375000 0.500000
vt 0.125000 0.750000
vt 0.125000 0.500000
vt 0.250000 1.000000
vt 0.250000 0.750000
vt 0.375000 0.750000
vt 0.375000 1.000000
vt 0.250000 1.000000
vt 0.125000 1.000000
vn -1.0000 0.0000 0.0000
vn 0.0000 0.0000 -1.0000
vn 1.0000 0.0000 0.0000
vn 0.0000 0.0000 1.0000
vn 0.0000 -1.0000 0.0000
vn 0.0000 1.0000 0.0000
usemtl Material.004
s off
f 1/1/1 2/2/1 3/3/1 4/4/1
f 5/5/2 1/6/2 4/7/2 6/8/2
f 6/9/3 7/10/3 8/11/3 5/12/3
f 2/2/4 8/13/4 7/14/4 3/3/4
f 2/2/5 1/6/5 5/5/5 8/13/5
f 7/14/6 6/8/6 4/7/6 3/3/6
f 9/15/1 10/16/1 11/17/1 12/18/1
f 10/19/2 13/20/2 14/21/2 11/22/2
f 13/23/3 15/24/3 16/25/3 14/26/3
f 15/27/4 9/15/4 12/18/4 16/28/4
f 12/29/5 11/30/5 14/26/5 16/31/5
f 15/32/6 13/23/6 10/33/6 9/34/6
f 17/35/1 18/36/1 19/37/1 20/38/1
f 18/36/2 21/39/2 22/40/2 19/41/2
f 21/42/3 23/43/3 24/44/3 22/40/3
f 23/45/4 17/46/4 20/47/4 24/48/4
f 20/49/5 19/37/5 22/40/5 24/50/5
f 23/51/6 21/42/6 18/36/6 17/52/6
f 25/53/1 26/54/1 27/55/1 28/56/1
f 26/54/2 29/57/2 30/58/2 27/59/2
f 29/60/3 31/61/3 32/62/3 30/63/3
f 31/64/4 25/65/4 28/66/4 32/67/4
f 28/68/5 27/69/5 30/70/5 32/71/5
f 31/72/6 29/60/6 26/54/6 25/73/6
f 33/74/1 34/75/1 35/76/1 36/77/1
f 34/75/2 37/78/2 38/79/2 35/80/2
f 37/81/3 39/82/3 40/83/3 38/79/3
f 39/84/4 33/85/4 36/86/4 40/87/4
f 36/88/5 35/76/5 38/79/5 40/89/5
f 39/90/6 37/81/6 34/75/6 33/91/6
f 41/92/1 42/93/1 43/94/1 44/95/1
f 42/96/2 45/97/2 46/98/2 43/99/2
f 45/100/3 47/101/3 48/102/3 46/103/3
f 47/104/4 41/105/4 44/106/4 48/107/4
f 44/108/5 43/109/5 46/103/5 48/110/5
f 47/111/6 45/100/6 42/112/6 41/113/6
f 49/114/1 50/115/1 51/116/1 52/117/1
f 50/118/2 53/119/2 54/120/2 51/121/2
f 53/122/3 55/123/3 56/124/3 54/125/3
f 55/123/4 49/114/4 52/117/4 56/124/4
f 52/126/5 51/127/5 54/128/5 56/129/5
f 55/123/6 53/130/6 50/131/6 49/114/6
f 57/132/1 58/133/1 59/134/1 60/135/1
f 58/136/2 61/137/2 62/138/2 59/139/2
f 61/140/3 63/141/3 64/142/3 62/143/3
f 63/141/4 57/144/4 60/145/4 64/142/4
f 60/146/5 59/147/5 62/148/5 64/149/5
f 63/141/6 61/150/6 58/151/6 57/144/6
o Front_left_leg.000_Cube.016
v -1.000000 0.034892 -1.574202
v -1.000000 0.028060 -0.774231
v -1.000000 1.228016 -0.763984
v -1.000000 1.234848 -1.563955
v -0.200000 0.034892 -1.574202
v -0.200000 1.234848 -1.563955
v -0.200000 1.228016 -0.763984
v -0.200000 0.028060 -0.774231
vt 0.062500 0.187500
vt 0.062500 0.375000
vt 0.000000 0.375000
vt 0.000000 0.187500
vt 0.187500 0.187500
vt 0.250000 0.187500
vt 0.250000 0.375000
vt 0.187500 0.375000
vt 0.125000 0.375000
vt 0.125000 0.187500
vt 0.062500 0.187500
vt 0.062500 0.375000
vt 0.125000 0.500000
vt 0.125000 0.375000
vt 0.187500 0.375000
vt 0.187500 0.500000
vt 0.062500 0.500000
vt 0.062500 0.375000
vt 0.125000 0.375000
vt 0.125000 0.500000
vn -1.0000 0.0000 0.0000
vn 0.0000 0.0085 -1.0000
vn 1.0000 0.0000 0.0000
vn 0.0000 -0.0085 1.0000
vn 0.0000 -1.0000 -0.0085
vn 0.0000 1.0000 0.0085
usemtl Material.002
s off
f 65/152/7 66/153/7 67/154/7 68/155/7
f 69/156/8 65/157/8 68/158/8 70/159/8
f 70/159/9 71/160/9 72/161/9 69/156/9
f 66/162/10 72/161/10 71/160/10 67/163/10
f 66/164/11 65/165/11 69/166/11 72/167/11
f 71/168/12 70/169/12 68/170/12 67/171/12
o Front_left_leg.002_Cube.011
v 0.200000 0.015130 -1.595112
v 0.200000 0.004285 -0.795186
v 0.200000 1.204174 -0.778919
v 0.200000 1.215019 -1.578845
v 1.000000 0.015130 -1.595112
v 1.000000 1.215019 -1.578845
v 1.000000 1.204174 -0.778919
v 1.000000 0.004285 -0.795186
vt 0.062500 0.187500
vt 0.062500 0.375000
vt 0.000000 0.375000
vt 0.000000 0.187500
vt 0.187500 0.187500
vt 0.250000 0.187500
vt 0.250000 0.375000
vt 0.187500 0.375000
vt 0.125000 0.375000
vt 0.125000 0.187500
vt 0.062500 0.187500
vt 0.062500 0.375000
vt 0.125000 0.500000
vt 0.125000 0.375000
vt 0.187500 0.375000
vt 0.187500 0.500000
vt 0.062500 0.500000
vt 0.062500 0.375000
vt 0.125000 0.375000
vt 0.125000 0.500000
vn -1.0000 0.0000 0.0000
vn 0.0000 0.0136 -0.9999
vn 1.0000 0.0000 0.0000
vn 0.0000 -0.0136 0.9999
vn 0.0000 -0.9999 -0.0136
vn 0.0000 0.9999 0.0136
usemtl Material.002
s off
f 73/172/13 74/173/13 75/174/13 76/175/13
f 77/176/14 73/177/14 76/178/14 78/179/14
f 78/179/15 79/180/15 80/181/15 77/176/15
f 74/182/16 80/181/16 79/180/16 75/183/16
f 74/184/17 73/185/17 77/186/17 80/187/17
f 79/188/18 78/189/18 76/190/18 75/191/18
o Front_left_leg.003_Cube.018
v 0.200000 0.015919 0.737445
v 0.200000 0.009088 1.537416
v 0.200000 1.209044 1.547663
v 0.200000 1.215876 0.747692
v 1.000000 0.015919 0.737445
v 1.000000 1.215876 0.747692
v 1.000000 1.209044 1.547663
v 1.000000 0.009088 1.537416
vt 0.062500 0.187500
vt 0.062500 0.375000
vt 0.000000 0.375000
vt 0.000000 0.187500
vt 0.187500 0.187500
vt 0.250000 0.187500
vt 0.250000 0.375000
vt 0.187500 0.375000
vt 0.125000 0.375000
vt 0.125000 0.187500
vt 0.062500 0.187500
vt 0.062500 0.375000
vt 0.125000 0.500000
vt 0.125000 0.375000
vt 0.187500 0.375000
vt 0.187500 0.500000
vt 0.062500 0.500000
vt 0.062500 0.375000
vt 0.125000 0.375000
vt 0.125000 0.500000
vn -1.0000 0.0000 0.0000
vn 0.0000 0.0085 -1.0000
vn 1.0000 0.0000 0.0000
vn 0.0000 -0.0085 1.0000
vn 0.0000 -1.0000 -0.0085
vn 0.0000 1.0000 0.0085
usemtl Material.002
s off
f 81/192/19 82/193/19 83/194/19 84/195/19
f 85/196/20 81/197/20 84/198/20 86/199/20
f 86/199/21 87/200/21 88/201/21 85/196/21
f 82/202/22 88/201/22 87/200/22 83/203/22
f 82/204/23 81/205/23 85/206/23 88/207/23
f 87/208/24 86/209/24 84/210/24 83/211/24
o Body_Cube.001
v -1.000000 1.281595 -1.418714
v -1.000000 1.281594 1.781286
v -1.000000 3.281595 1.781286
v -1.000000 3.281595 -1.418714
v 1.000000 1.281595 -1.418714
v 1.000000 3.281595 -1.418714
v 1.000000 3.281595 1.781286
v 1.000000 1.281594 1.781286
vt 0.562500 0.000000
vt 0.562500 0.500000
vt 0.437500 0.500000
vt 0.437500 0.000000
vt 0.718750 0.500000
vt 0.875000 0.500000
vt 0.875000 0.750000
vt 0.718750 0.750000
vt 0.843750 0.000000
vt 0.843750 0.500000
vt 0.718750 0.500000
vt 0.718750 0.000000
vt 0.718750 0.750000
vt 0.562500 0.750000
vt 1.000000 0.000000
vt 1.000000 0.500000
vt 0.843750 0.500000
vt 0.843750 0.000000
vn -1.0000 -0.0000 0.0000
vn 0.0000 0.0000 -1.0000
vn 1.0000 -0.0000 0.0000
vn 0.0000 -0.0000 1.0000
vn 0.0000 -1.0000 -0.0000
vn 0.0000 1.0000 0.0000
usemtl Material.001
s off
f 89/212/25 90/213/25 91/214/25 92/215/25
f 93/216/26 89/217/26 92/218/26 94/219/26
f 94/220/27 95/221/27 96/222/27 93/223/27
f 90/213/28 96/222/28 95/224/28 91/225/28
f 90/213/29 89/212/29 93/223/29 96/222/29
f 95/226/30 94/227/30 92/228/30 91/229/30
o Front_left_leg.001_Cube.017
v -1.000000 0.020233 0.758778
v -1.000000 0.009388 1.558704
v -1.000000 1.209278 1.574972
v -1.000000 1.220123 0.775046
v -0.200000 0.020233 0.758778
v -0.200000 1.220123 0.775046
v -0.200000 1.209278 1.574972
v -0.200000 0.009388 1.558704
vt 0.062500 0.187500
vt 0.062500 0.375000
vt 0.000000 0.375000
vt 0.000000 0.187500
vt 0.187500 0.187500
vt 0.250000 0.187500
vt 0.250000 0.375000
vt 0.187500 0.375000
vt 0.125000 0.375000
vt 0.125000 0.187500
vt 0.062500 0.187500
vt 0.062500 0.375000
vt 0.125000 0.500000
vt 0.125000 0.375000
vt 0.187500 0.375000
vt 0.187500 0.500000
vt 0.062500 0.500000
vt 0.062500 0.375000
vt 0.125000 0.375000
vt 0.125000 0.500000
vn -1.0000 0.0000 0.0000
vn 0.0000 0.0136 -0.9999
vn 1.0000 -0.0000 0.0000
vn 0.0000 -0.0136 0.9999
vn 0.0000 -0.9999 -0.0136
vn 0.0000 0.9999 0.0136
usemtl Material.002
s off
f 97/230/31 98/231/31 99/232/31 100/233/31
f 101/234/32 97/235/32 100/236/32 102/237/32
f 102/237/33 103/238/33 104/239/33 101/234/33
f 98/240/34 104/239/34 103/238/34 99/241/34
f 98/242/35 97/243/35 101/244/35 104/245/35
f 103/246/36 102/247/36 100/248/36 99/249/36
o Tail_Cube.015_Tale_Cube.015
v -0.200000 2.236179 -1.519913
v -0.200000 2.236179 -1.419913
v 0.000000 2.236180 -1.419913
v 0.000000 2.236180 -1.519913
v -0.200000 1.986179 -1.519913
v 0.000000 1.986180 -1.519913
v 0.000000 1.986180 -1.419913
v -0.200000 1.986179 -1.419913
v -0.200000 2.486180 -1.419913
v -0.200000 2.486180 -1.519913
v -0.400000 2.486179 -1.519913
v -0.400000 2.486179 -1.419913
v -0.200000 2.236180 -1.519913
v -0.400000 2.236179 -1.519913
v -0.200000 2.236180 -1.419913
v -0.400000 2.236179 -1.419913
v 0.200000 2.736180 -1.419913
v 0.200000 2.736180 -1.519912
v -0.200000 2.736179 -1.519912
v -0.200000 2.736179 -1.419913
v 0.200000 2.486180 -1.519913
v -0.200000 2.486179 -1.519913
v 0.200000 2.486180 -1.419913
v -0.200000 2.486179 -1.419913
v 0.400000 1.736179 -1.419913
v 0.400000 1.736179 -1.519913
v 0.400000 2.486179 -1.519913
v 0.400000 2.486179 -1.419913
v 0.200000 1.736179 -1.519913
v 0.200000 2.486180 -1.519913
v 0.200000 1.736179 -1.419913
v 0.200000 2.486180 -1.419913
v -0.400000 1.486179 -1.419913
v -0.400000 1.486179 -1.519913
v 0.200000 1.486179 -1.519913
v 0.200000 1.486179 -1.419913
v -0.400000 1.736179 -1.519913
v 0.200000 1.736179 -1.519913
v -0.400000 1.736179 -1.419913
v 0.200000 1.736179 -1.419913
vt 0.812500 0.625000
vt 0.796875 0.625000
vt 0.796875 0.593750
vt 0.812500 0.593750
vt 0.796875 0.593750
vt 0.812500 0.593750
vt 0.812500 0.625000
vt 0.796875 0.625000
vt 0.812500 0.625000
vt 0.796875 0.625000
vt 0.796875 0.593750
vt 0.812500 0.593750
vt 0.703161 1.023387
vt 0.578161 1.023387
vt 0.578161 0.940054
vt 0.703161 0.940054
vt 0.812500 0.593750
vt 0.796875 0.625000
vt 0.796875 0.593750
vt 0.812500 0.593750
vt 0.796875 0.625000
vt 0.812500 0.625000
vt 0.828125 0.625000
vt 0.828125 0.656250
vt 0.812500 0.656250
vt 0.828125 0.656250
vt 0.812500 0.656250
vt 0.812500 0.625000
vt 0.828125 0.625000
vt 0.828125 0.656250
vt 0.812500 0.656250
vt 0.812500 0.625000
vt 0.828125 0.625000
vt 0.500000 0.833333
vt 0.625000 0.833333
vt 0.625000 0.916667
vt 0.500000 0.916667
vt 0.812500 0.625000
vt 0.828125 0.656250
vt 0.812500 0.656250
vt 0.812500 0.625000
vt 0.828125 0.625000
vt 0.812500 0.656250
vt 0.781250 0.687500
vt 0.781250 0.656250
vt 0.812500 0.656250
vt 0.812500 0.687500
vt 0.781250 0.687500
vt 0.781250 0.656250
vt 0.812500 0.656250
vt 0.812500 0.687500
vt 0.812500 0.656250
vt 0.812500 0.687500
vt 0.781250 0.687500
vt 0.781250 0.656250
vt 0.753663 0.799126
vt 0.878663 0.799126
vt 0.878663 0.965792
vt 0.753663 0.965792
vt 0.812500 0.656250
vt 0.796875 0.687500
vt 0.796875 0.656250
vt 0.781250 0.656250
vt 0.788949 0.656250
vt 0.788949 0.687500
vt 0.765625 0.656250
vt 0.765625 0.562500
vt 0.781250 0.562500
vt 0.781250 0.656250
vt 0.765625 0.656250
vt 0.765625 0.562500
vt 0.781250 0.562500
vt 0.781250 0.656250
vt 0.765625 0.656250
vt 0.765625 0.562500
vt 0.781250 0.562500
vt 0.781250 0.656250
vt 0.765625 0.656250
vt 0.765625 0.562500
vt 0.781250 0.562500
vt 0.781250 0.656250
vt 0.765625 0.625000
vt 0.781250 0.625000
vt 0.765625 0.656250
vt 0.781250 0.562500
vt 0.781250 0.593750
vt 0.765625 0.593750
vt 0.828125 0.531250
vt 0.828125 0.562500
vt 0.781250 0.562500
vt 0.781250 0.531250
vt 0.828125 0.531250
vt 0.828125 0.562500
vt 0.781250 0.562500
vt 0.781250 0.531250
vt 0.828125 0.531250
vt 0.828125 0.562500
vt 0.781250 0.562500
vt 0.781250 0.531250
vt 0.618446 1.051465
vt 0.493446 1.051465
vt 0.493446 0.801465
vt 0.618446 0.801465
vt 0.781250 0.562500
vt 0.796875 0.531250
vt 0.796875 0.562500
vt 0.828125 0.531250
vt 0.812500 0.562500
vt 0.812500 0.531250
vn -0.0000 1.0000 0.0000
vn 0.0000 0.0000 -1.0000
vn 0.0000 -1.0000 0.0000
vn 0.0000 0.0000 1.0000
vn -1.0000 0.0000 0.0000
vn 1.0000 0.0000 0.0000
usemtl Material.003
s off
f 105/250/37 106/251/37 107/252/37 108/253/37
f 109/254/38 105/255/38 108/256/38 110/257/38
f 110/258/39 111/259/39 112/260/39 109/261/39
f 106/262/40 112/263/40 111/264/40 107/265/40
f 106/266/41 105/250/41 109/267/41 112/260/41
f 111/268/42 110/269/42 108/256/42 107/270/42
f 113/271/37 114/272/37 115/273/37 116/274/37
f 114/275/38 117/276/38 118/277/38 115/278/38
f 117/279/39 119/280/39 120/281/39 118/282/39
f 119/283/40 113/284/40 116/285/40 120/286/40
f 116/287/41 115/278/41 118/288/41 120/289/41
f 119/290/42 117/291/42 114/275/42 113/292/42
f 121/293/37 122/294/37 123/295/37 124/296/37
f 122/297/38 125/298/38 126/299/38 123/300/38
f 125/301/39 127/302/39 128/303/39 126/304/39
f 127/305/40 121/306/40 124/307/40 128/308/40
f 124/309/41 123/300/41 126/310/41 128/311/41
f 127/312/42 125/313/42 122/314/42 121/293/42
f 129/315/42 130/316/42 131/317/42 132/318/42
f 130/319/38 133/320/38 134/321/38 131/322/38
f 133/323/41 135/324/41 136/325/41 134/326/41
f 135/327/40 129/328/40 132/329/40 136/330/40
f 132/331/37 131/332/37 134/326/37 136/333/37
f 135/324/39 133/334/39 130/335/39 129/336/39
f 137/337/39 138/338/39 139/339/39 140/340/39
f 138/341/38 141/342/38 142/343/38 139/344/38
f 141/345/37 143/346/37 144/347/37 142/348/37
f 143/349/40 137/350/40 140/351/40 144/352/40
f 140/353/42 139/344/42 142/354/42 144/355/42
f 143/356/41 141/342/41 138/357/41 137/358/41
